<svg xmlns="http://www.w3.org/2000/svg" viewBox="0 0 80.97 81"><defs><style>.cls-1{fill:#0106d6;}</style></defs><g id="Layer_2" data-name="Layer 2"><g id="Layer_1-2" data-name="Layer 1"><path class="cls-1" d="M31.6,10.6,37.9,12c.35.08.51-.16.71-.35l2-2c1.68-1.67,3.54-2,5.19-.86s2,2.93,1.08,5.17l5.33,1.18c.43.09.6-.31.83-.55q4.34-4.31,8.65-8.64A20.38,20.38,0,0,1,72.91.1a6.9,6.9,0,0,1,8,8,20.62,20.62,0,0,1-6,11.36c-2.82,2.8-5.61,5.62-8.44,8.41A1.4,1.4,0,0,0,66,29.36c.39,1.53.69,3.07,1,4.69.44-.14.82-.28,1.2-.38a3.71,3.71,0,0,1,3.71,6.06c-.8.89-1.66,1.72-2.52,2.54a1.07,1.07,0,0,0-.35,1.2c.47,1.93.86,3.88,1.31,6a4.06,4.06,0,0,1,3.68-1.49,3.76,3.76,0,0,1,2.16,6.31c-1.12,1.17-2.27,2.31-3.43,3.43a1.13,1.13,0,0,0-.38,1.2c.94,4.2,1.84,8.42,2.78,12.63a3.68,3.68,0,0,1-1.1,3.83c-.72.67-1.39,1.39-2.09,2.08-2.06,2-4.38,1.73-5.78-.79Q58,61.71,49.74,46.79c-.38-.69-.61-1.84-1.24-1.94s-1.21.92-1.8,1.45C41.53,51,36.37,55.74,31.2,60.44a1.88,1.88,0,0,0-.68,1.43C30.27,66.92,30,72,29.73,77a1.61,1.61,0,0,1-.53,1.19c-.64.6-1.24,1.24-1.87,1.85-1.57,1.52-3.36,1.14-4.14-.89q-2.81-7.26-5.54-14.54a2,2,0,0,0-1.31-1.32c-4.82-1.81-9.63-3.66-14.43-5.5C-.27,57-.57,55.3.94,53.56A6.42,6.42,0,0,1,6.15,51.1c4.35,0,8.7-.43,13.05-.65a1.68,1.68,0,0,0,1.26-.59q7.66-8.41,15.37-16.8c.7-.76.11-.87-.35-1.12L4.37,14.76C1.84,13.36,1.5,11,3.53,9,4.23,8.29,5,7.63,5.61,6.9A3.66,3.66,0,0,1,9.43,5.77c4.21.94,8.43,1.83,12.63,2.78a1.2,1.2,0,0,0,1.29-.4c1-1.07,2.07-2.1,3.12-3.14a3.86,3.86,0,0,1,5.4-.29c1.59,1.46,1.61,3.64.06,5.45C31.84,10.27,31.77,10.38,31.6,10.6Z"/></g></g></svg>