<svg xmlns="http://www.w3.org/2000/svg" viewBox="0 0 80.98 81.02"><defs><style>.cls-1{fill:#0106d6;}.cls-2{fill:#0308d7;}</style></defs><g id="Layer_2" data-name="Layer 2"><g id="Layer_1-2" data-name="Layer 1"><path class="cls-1" d="M25.28,81H5.4A5.12,5.12,0,0,1,0,75.66C0,64,0,52.38,0,40.74c0-6.57,3.16-11.32,9.1-14.14a14.43,14.43,0,0,1,6.32-1.28q9.87,0,19.75,0A15.23,15.23,0,0,1,50.63,40.7q0,17.49,0,35A5.14,5.14,0,0,1,45.29,81Zm0-15.2A12.66,12.66,0,1,0,12.67,53.14,12.7,12.7,0,0,0,25.3,65.81Z"/><path class="cls-1" d="M25.31,20.25c-3.16,0-6.33,0-9.49,0-.51,0-.64-.13-.63-.63,0-4.74.05-9.48,0-14.21A5.28,5.28,0,0,1,19,.2,6,6,0,0,1,20.58,0h9.5a5.12,5.12,0,0,1,5.2,3.86,5.52,5.52,0,0,1,.16,1.57c0,4.74,0,9.48,0,14.21,0,.54-.2.61-.66.61C31.64,20.24,28.47,20.25,25.31,20.25Z"/><path class="cls-2" d="M70.86,22.78c0,.36-.27.56-.6.7-1.32.54-2.62,1.1-3.94,1.62a1.2,1.2,0,0,0-.73.73c-.5,1.26-1,2.51-1.55,3.76-.15.36-.27.76-.74.78s-.6-.4-.75-.75c-.52-1.25-1.06-2.5-1.56-3.76a1.26,1.26,0,0,0-.76-.77c-1.27-.5-2.51-1-3.77-1.55-.36-.15-.73-.29-.73-.77s.37-.57.7-.71c1.29-.54,2.58-1.09,3.88-1.61a1.07,1.07,0,0,0,.64-.64c.51-1.28,1-2.55,1.59-3.82.15-.34.23-.75.73-.76s.61.39.76.74c.52,1.23,1,2.46,1.53,3.7a1.36,1.36,0,0,0,.86.84c1.3.52,2.58,1.08,3.87,1.62C70.58,22.25,70.83,22.39,70.86,22.78Z"/><path class="cls-2" d="M73.43,45.54c-.41,0-.58-.28-.71-.61-.55-1.32-1.11-2.62-1.64-3.94a1.09,1.09,0,0,0-.67-.69c-1.28-.51-2.55-1-3.82-1.58-.36-.15-.74-.28-.75-.76s.42-.59.77-.73c1.27-.54,2.54-1.07,3.82-1.59a1.07,1.07,0,0,0,.64-.64c.53-1.31,1.09-2.62,1.63-3.93.13-.33.27-.65.69-.66s.59.33.73.68c.52,1.25,1.06,2.5,1.56,3.76a1.36,1.36,0,0,0,.85.85c1.28.5,2.54,1.06,3.82,1.58.33.14.64.29.63.7s-.32.56-.65.7c-1.31.54-2.62,1.1-3.94,1.63a1.05,1.05,0,0,0-.63.64c-.53,1.32-1.09,2.63-1.64,3.94C74,45.2,73.86,45.53,73.43,45.54Z"/><path class="cls-2" d="M73.6,15.16a.81.81,0,0,1-.89-.61c-.54-1.31-1.1-2.62-1.63-3.93a1.11,1.11,0,0,0-.68-.69c-1.24-.5-2.47-1-3.7-1.54-.38-.16-.86-.26-.85-.81s.5-.62.88-.78c1.21-.51,2.42-1,3.64-1.51a1.18,1.18,0,0,0,.73-.72C71.61,3.29,72.15,2,72.68.75c.14-.34.26-.71.71-.72s.61.38.76.74c.51,1.24,1,2.46,1.53,3.7a1.37,1.37,0,0,0,.85.86c1.28.5,2.55,1,3.82,1.58.33.13.65.29.63.7s-.32.56-.65.69c-1.29.54-2.58,1.09-3.88,1.62a1.15,1.15,0,0,0-.72.72c-.53,1.32-1.09,2.63-1.64,3.94C74,14.88,73.82,15.17,73.6,15.16Z"/><path class="cls-2" d="M53.17,0c.36,0,.53.27.66.58.55,1.32,1.11,2.62,1.64,3.94a1.24,1.24,0,0,0,.77.76c1.28.51,2.55,1.06,3.83,1.58.33.14.65.28.66.69s-.34.59-.68.74c-1.3.53-2.59,1.09-3.88,1.61a1.13,1.13,0,0,0-.68.69c-.52,1.3-1.08,2.59-1.62,3.88-.14.34-.28.68-.74.67s-.55-.35-.68-.67c-.55-1.31-1.1-2.62-1.63-3.94a1,1,0,0,0-.6-.6c-1.28-.52-2.55-1.06-3.82-1.59-.38-.16-.81-.28-.8-.79s.42-.59.77-.73c1.25-.53,2.5-1.06,3.76-1.56a1.23,1.23,0,0,0,.73-.73c.52-1.32,1.08-2.63,1.62-3.94C52.61.3,52.78.05,53.17,0Z"/></g></g></svg>