<svg xmlns="http://www.w3.org/2000/svg" viewBox="0 0 81 80.96"><defs><style>.cls-1{fill:#0106d6;}</style></defs><g id="Layer_2" data-name="Layer 2"><g id="Layer_1-2" data-name="Layer 1"><path class="cls-1" d="M40.48,80.94q-19.86,0-39.72,0c-.6,0-.77-.14-.76-.8,0-2.41,0-4.83,0-7.25,0-.45.12-.56.53-.56,2.75,0,5.49,0,8.24,0,.4,0,.57-.13.71-.54,1.29-3.91,2.62-7.8,3.92-11.71a.63.63,0,0,1,.71-.54q26.37,0,52.74,0c.44,0,.6.15.74.58,1.29,3.88,2.62,7.76,3.91,11.64.14.43.31.58.75.58,2.72,0,5.45,0,8.17,0,.45,0,.57.13.57.6,0,2.44,0,4.88,0,7.32,0,.59-.18.68-.68.68Z"/><path class="cls-1" d="M64.5,51.1H17.2c-.75,0-.75,0-.49-.76L22,34.53a.59.59,0,0,1,.66-.49H58.34c.34,0,.54.07.66.43l5.47,16.38A1.11,1.11,0,0,1,64.5,51.1Z"/><path class="cls-1" d="M56,25.56H25.75c-.73,0-.73,0-.49-.72Q28.88,14,32.49,3.22A4.26,4.26,0,0,1,36.75,0c2.55.07,5.1.05,7.65,0a4.18,4.18,0,0,1,4.05,3Q52,13.69,55.57,24.29C55.7,24.69,55.82,25.09,56,25.56Z"/></g></g></svg>