<svg xmlns="http://www.w3.org/2000/svg" viewBox="0 0 80.75 81"><defs><style>.cls-1{fill:#0106d6;}</style></defs><g id="Layer_2" data-name="Layer 2"><g id="Layer_1-2" data-name="Layer 1"><path class="cls-1" d="M9.79,42.61c-.39.45-.75.94-1.18,1.35a5,5,0,0,1-6.34.66,5.09,5.09,0,0,1-2-5.86,5.4,5.4,0,0,1,1.42-2.13L33.09,5.2C34.4,3.9,35.68,2.57,37,1.32a4.94,4.94,0,0,1,6.86.13C47.77,5.28,51.62,9.16,55.48,13,63.33,20.87,71.15,28.74,79,36.56a5.11,5.11,0,0,1-.23,7.83,5,5,0,0,1-6.71-.46c-.41-.4-.79-.83-1.18-1.25l-.21.08v.86q0,15.85,0,31.71a5.61,5.61,0,0,1-.94,3.44,4.63,4.63,0,0,1-3.69,2.09,107.27,107.27,0,0,1-10.76,0c-3.06-.17-4.84-2.31-4.85-5.41s0-6.33,0-9.49a5,5,0,0,0-3.74-5.08,4.26,4.26,0,0,0-1.12-.15c-3.49,0-7-.1-10.47,0A4.93,4.93,0,0,0,30.26,66c0,3.18,0,6.37,0,9.56a5,5,0,0,1-2.92,4.91,5.32,5.32,0,0,1-2.35.5c-3.21,0-6.42,0-9.63,0a5,5,0,0,1-5.16-3.86,6.06,6.06,0,0,1-.14-1.8q0-15.85,0-31.71v-.8Z"/></g></g></svg>