<svg xmlns="http://www.w3.org/2000/svg" viewBox="0 0 81 80.94"><defs><style>.cls-1{fill:#0105d6;}</style></defs><g id="Layer_2" data-name="Layer 2"><g id="Layer_1-2" data-name="Layer 1"><path class="cls-1" d="M12.62,80.94H4.22A3.84,3.84,0,0,1,0,76.78c0-3.81,0-7.62,0-11.43a4.81,4.81,0,0,1,1.52-3.66q11.07-11,22.1-22.08c.8-.79,1.55-1.62,2.39-2.36a1.33,1.33,0,0,0,.43-1.6,25.69,25.69,0,0,1-1-10.45c1.13-9.67,5.89-17,14.41-21.76A26.39,26.39,0,0,1,57.1.33,26.65,26.65,0,0,1,76.35,12.66c5.5,8.59,6.12,17.74,1.87,27-3.68,8-10.06,13.06-18.64,15.23A26.56,26.56,0,0,1,49,55.3a1.72,1.72,0,0,0-1.86.69c-.84,1-1.8,2-2.66,3a4.55,4.55,0,0,1-3.83,1.71c-1.51-.06-3,0-4.53,0-.61,0-.76.19-.74.77,0,1.7-.05,3.41,0,5.12a4,4,0,0,1-4.23,4.25c-1.74-.06-3.47,0-5.21,0-.56,0-.7.17-.69.71,0,1.74,0,3.47,0,5.21a3.86,3.86,0,0,1-4.18,4.19ZM53.11,20.23a7.57,7.57,0,1,0,7.59-7.54A7.55,7.55,0,0,0,53.11,20.23Z"/></g></g></svg>