<svg xmlns="http://www.w3.org/2000/svg" viewBox="0 0 81 81"><defs><style>.cls-1{fill:#0106d6;}</style></defs><g id="Layer_2" data-name="Layer 2"><g id="Layer_1-2" data-name="Layer 1"><path class="cls-1" d="M8.38,54.82c-.07-5.15.19-10.29.45-15.44,0-.78-.15-1-.9-1-2.11,0-4.21,0-6.32,0C.42,38.44,0,38,0,36.77.11,34.18.23,31.59.4,29A3.38,3.38,0,0,1,3.74,25.5a16.25,16.25,0,0,1,2.09-.1c1.12,0,1.59.52,1.55,1.66-.09,2.11-.22,4.22-.32,6.34,0,.44-.22,1.07.59.89.55-.11,1.47.56,1.53-.75q.36-6.94,1-13.87A101.14,101.14,0,0,1,11.82,8a11.25,11.25,0,0,1,3.36-6.25A7,7,0,0,1,20.06,0H60.94c3.25,0,5.47,1.66,7,4.47,1.29,2.38,1.62,5,2,7.65,1,7.06,1.45,14.17,2,21.28,0,.3-.17.8.26.87a4.52,4.52,0,0,0,1.68,0c.28-.06.13-.49.12-.74-.08-2.08-.18-4.16-.27-6.24-.06-1.41.35-1.85,1.72-1.87,4-.08,5.18,1,5.34,5.16.08,2,.18,4.09.26,6.13,0,1.37-.33,1.76-1.7,1.76-2.1,0-4.21,0-6.31,0-.63,0-.86.12-.82.84.67,9.77.57,19.57.57,29.36a13.83,13.83,0,0,1-.27,3.15A5,5,0,0,1,70,75a1.38,1.38,0,0,0-.75,1.48,17.35,17.35,0,0,1,0,2A2.28,2.28,0,0,1,66.8,81c-1.94,0-3.88,0-5.81,0a2.26,2.26,0,0,1-2.5-2.51c0-1,.31-2.21-.16-2.76s-1.82-.2-2.77-.2c-10.66,0-21.31,0-32,0-.84,0-1.11.22-1,1.07a12.74,12.74,0,0,1,0,2.14A2.22,2.22,0,0,1,20.24,81q-3.06,0-6.12,0a2.24,2.24,0,0,1-2.33-2.37,1.87,1.87,0,0,1,0-.41c.21-1.67-.07-3-1.7-4a4.13,4.13,0,0,1-1.7-3.74C8.37,65.26,8.38,60,8.38,54.82ZM66.12,30.55c.54,0,1,0,1-.28A29.93,29.93,0,0,0,65.44,22c-.09-.26-.34-.32-1-.32H16.7c-.75,0-1,.09-1,.33A30.18,30.18,0,0,0,14,30.2c0,.31.27.35,1,.35q12.73,0,25.46,0m.1,26.26c-3.67,0-7.35,0-11,0-2,0-2.68.6-3.14,2.55-.23,1-.47,2-.69,3a3.38,3.38,0,0,0,1.79,4,5.8,5.8,0,0,0,2.78.73H50.73a5.66,5.66,0,0,0,3-.88,3.26,3.26,0,0,0,1.57-3.66c-.2-1-.44-2.06-.67-3.09-.47-2.06-1.18-2.65-3.28-2.65C47.79,56.8,44.18,56.81,40.57,56.81Zm29,.21c-.07-.74-.14-1.49-.24-2.23a6.56,6.56,0,0,0-.2-1,2.25,2.25,0,0,0-3-1.79,13.2,13.2,0,0,0-4.09,2.09,9.43,9.43,0,0,0-3.31,7.47c0,1.44.7,2,2.06,1.66a46.78,46.78,0,0,0,5.32-1.4C68.79,60.89,69.52,59.87,69.56,57Zm-58,.09c-.07,2.67.65,3.74,3.42,4.72a49.76,49.76,0,0,0,5.61,1.47,1.31,1.31,0,0,0,1.67-1.18A5.26,5.26,0,0,0,22.27,61a9.62,9.62,0,0,0-7.52-9A2.22,2.22,0,0,0,12,53.54,12.33,12.33,0,0,0,11.52,57.11Z"/></g></g></svg>